# xmcd
#
# Track frame offsets:
#	150
#	13830
#	28970
#	43425
#	60430
#	76285
#	90155
#	105502
#	121495
#	136972
#	154397
#	173107
#	186332
#	201680
#	216752
#	232050
#	244567
#	263465
#	276785
#	287475
#	297952
#
# Disc length: 4150 seconds
#
# Revision: 0
# Processed by: cddbd v1.4PL0 Copyright (c) Steve Scherf et al.
# Submitted via: EasyCDDAExtractor 5.0.5.1
#
DISCID=36103415
DTITLE=Dusan Sarac - Budi nocas, mirno more
DYEAR=1900
DGENRE=Vocal
TTITLE0=Dalmacija u mom oku
TTITLE1=Budi nocas, mirno more
TTITLE2=Na teraci
TTITLE3=Nitko nece u mornare
TTITLE4=Dobra ti vecer, mati moja
TTITLE5=Prodji me se
TTITLE6=Dalamcijo, za sva vremena
TTITLE7=Stiga je brod
TTITLE8=Bonaca
TTITLE9=Sibenske kale
TTITLE10=Sibenska balada
TTITLE11=Ja te volim i gotovo
TTITLE12=More sinje
TTITLE13=Maslina je neobrana
TTITLE14=Sibenska
TTITLE15=Stipe merikanac
TTITLE16=Klapo moja
TTITLE17=Na omiskoj stini
TTITLE18=Sijavica
TTITLE19=Dvoje se milovalo drago
TTITLE20=Zizula
EXTD=
EXTT0=
EXTT1=
EXTT2=
EXTT3=
EXTT4=
EXTT5=
EXTT6=
EXTT7=
EXTT8=
EXTT9=
EXTT10=
EXTT11=
EXTT12=
EXTT13=
EXTT14=
EXTT15=
EXTT16=
EXTT17=
EXTT18=
EXTT19=
EXTT20=
PLAYORDER=
